<?xml version="1.0" encoding="utf-8"?><svg version="1.1" id="Layer_1" xmlns="http://www.w3.org/2000/svg" xmlns:xlink="http://www.w3.org/1999/xlink" x="0px" y="0px" viewBox="0 0 109.33 122.88" style="enable-background:new 0 0 109.33 122.88" xml:space="preserve"><style type="text/css">.st0{fill-rule:evenodd;clip-rule:evenodd;fill:#262626;} .st1{fill-rule:evenodd;clip-rule:evenodd;fill:#FF0000;} .st2{fill:#FFFFFF;}</style><g><path class="st0" d="M82.28,105.33h-10.8V90.47H56.14v14.86H45l18.64,17.55L82.28,105.33L82.28,105.33z M102.4,33.95H83.61 c-1.98,0-4.73-1.06-6.03-2.36c-1.3-1.3-2.09-3.65-2.09-5.61V6.95l0,0H25.83c-0.16,0-0.29,0.08-0.37,0.16 c-0.14,0.09-0.18,0.21-0.18,0.38v87.73c0,0.12,0.09,0.29,0.16,0.37c0.09,0.13,0.26,0.16,0.38,0.16h12.96 c-1.03,2.16-1.79,4.49-2.23,6.91H23.7c-1.46,0-2.76-0.58-3.73-1.55c-0.96-0.96-1.54-2.26-1.54-3.73V5.32 c0-1.46,0.59-2.76,1.54-3.73c0.97-0.97,2.31-1.55,3.73-1.55h55.31C79.13,0,79.25,0,79.38,0c0.58,0,1.18,0.25,1.59,0.62h0.08 c0.09,0.05,0.13,0.09,0.21,0.16l27.27,27.61c0.46,0.46,0.8,1.09,0.8,1.8c0,0.21-0.04,0.37-0.08,0.6c0,25.22,0,41.39,0,66.61 c0,1.46-0.59,2.77-1.55,3.73c-0.97,0.96-2.27,1.55-3.73,1.55H90c-0.44-2.43-1.19-4.75-2.23-6.91h14.07c0.16,0,0.16-0.09,0.25-0.16 c0.13-0.09,0.3-0.26,0.3-0.37C102.39,71.78,102.4,57.39,102.4,33.95L102.4,33.95z M81.73,25.43V8.12l19.49,19.74H84.16 c-0.67,0-1.26-0.29-1.72-0.71C82.01,26.74,81.73,26.1,81.73,25.43L81.73,25.43L81.73,25.43z"/><polygon class="st1" points="0,38.51 88.91,38.51 88.91,81.22 0,81.22 0,38.51"/><path class="st2" d="M21.76,48.46h7.09v12.39c0,2.6-0.23,4.58-0.7,5.94c-0.46,1.36-1.39,2.51-2.79,3.46 c-1.4,0.94-3.19,1.41-5.38,1.41c-2.31,0-4.11-0.31-5.38-0.93c-1.27-0.62-2.26-1.53-2.94-2.73c-0.69-1.19-1.1-2.68-1.23-4.44 l6.76-0.92c0.01,1,0.1,1.75,0.27,2.24c0.16,0.49,0.45,0.88,0.84,1.18c0.27,0.2,0.66,0.3,1.16,0.3c0.79,0,1.38-0.29,1.74-0.88 c0.37-0.59,0.55-1.58,0.55-2.96V48.46L21.76,48.46z M33.21,48.46h11.76c2.56,0,4.48,0.6,5.75,1.82c1.27,1.22,1.91,2.94,1.91,5.18 c0,2.3-0.69,4.1-2.09,5.4c-1.39,1.3-3.51,1.94-6.37,1.94h-3.87v8.46h-7.11V48.46L33.21,48.46z M40.32,58.18h1.73 c1.37,0,2.33-0.23,2.87-0.71c0.55-0.47,0.83-1.07,0.83-1.81c0-0.72-0.24-1.33-0.72-1.82c-0.47-0.5-1.38-0.75-2.7-0.75h-2.02V58.18 L40.32,58.18z M67.55,63v-4.74h10.93v9.72c-2.09,1.42-3.94,2.38-5.55,2.9c-1.61,0.51-3.52,0.77-5.73,0.77 c-2.71,0-4.93-0.46-6.64-1.39c-1.71-0.92-3.04-2.29-3.98-4.12c-0.94-1.82-1.42-3.92-1.42-6.28c0-2.49,0.52-4.65,1.55-6.5 c1.03-1.84,2.54-3.24,4.53-4.19c1.55-0.74,3.64-1.1,6.27-1.1c2.53,0,4.43,0.23,5.68,0.68c1.25,0.46,2.3,1.16,3.13,2.12 c0.83,0.96,1.45,2.18,1.87,3.65l-6.83,1.21c-0.28-0.86-0.76-1.52-1.43-1.97c-0.67-0.46-1.53-0.68-2.57-0.68 c-1.55,0-2.79,0.54-3.71,1.61c-0.92,1.08-1.39,2.78-1.39,5.1c0,2.47,0.47,4.23,1.4,5.29c0.93,1.06,2.23,1.59,3.9,1.59 c0.79,0,1.54-0.12,2.26-0.34c0.72-0.23,1.55-0.62,2.47-1.16V63H67.55L67.55,63z"/></g></svg>